<svg width="16" height="16" viewBox="0 0 16 16" fill="none" xmlns="http://www.w3.org/2000/svg">
<path fill-rule="evenodd" clip-rule="evenodd" d="M4.80037 3.2H3.20037V2.39997H1.6011V4.80003H14.4011V2.39997H12.8004V3.2H11.2004V2.39997H4.80037V3.2ZM14.4011 6.40003H1.6011V14.4H14.4011V6.40003ZM11.2004 0.800034H4.80037V0H3.20037V0.800034H1.6C0.716344 0.800034 0 1.51638 0 2.40003V14.4C0 15.2837 0.716344 16 1.6 16H14.4C15.2837 16 16 15.2837 16 14.4V2.40003C16 1.51638 15.2837 0.800034 14.4 0.800034H12.8004V0H11.2004V0.800034ZM5.6 9.6H4V8H5.6V9.6ZM7.20037 9.6H8.80037V8H7.20037V9.6ZM11.9989 9.6H10.3989V8H11.9989V9.6ZM4 12.8H5.6V11.2H4V12.8ZM8.80037 12.8H7.20037V11.2H8.80037V12.8Z" fill="#777E91"/>
</svg>
