<svg width="32" height="32" viewBox="0 0 32 32" fill="none" xmlns="http://www.w3.org/2000/svg">
<rect width="32" height="32" rx="16" fill="#E7ECF3"/>
<path d="M18.9707 16.5675C19.7589 15.9507 20.3342 15.105 20.6166 14.148C20.899 13.191 20.8744 12.1702 20.5463 11.2277C20.2182 10.2852 19.6028 9.46786 18.7859 8.88937C17.9689 8.31087 16.991 8 15.9881 8C14.9852 8 14.0072 8.31087 13.1903 8.88937C12.3733 9.46786 11.758 10.2852 11.4298 11.2277C11.1017 12.1702 11.0772 13.191 11.3595 14.148C11.6419 15.105 12.2172 15.9507 13.0054 16.5675C11.6548 17.1056 10.4764 17.9981 9.59578 19.1499C8.71514 20.3017 8.16529 21.6696 8.00485 23.1077C7.99324 23.2127 8.00253 23.3189 8.0322 23.4204C8.06188 23.5218 8.11135 23.6164 8.17779 23.6988C8.31197 23.8652 8.50714 23.9718 8.72037 23.9952C8.93359 24.0185 9.14739 23.9566 9.31475 23.8232C9.4821 23.6897 9.5893 23.4956 9.61275 23.2836C9.78929 21.7206 10.5386 20.2772 11.7177 19.229C12.8967 18.1807 14.4227 17.6013 16.0042 17.6013C17.5856 17.6013 19.1116 18.1807 20.2906 19.229C21.4697 20.2772 22.219 21.7206 22.3956 23.2836C22.4174 23.48 22.5117 23.6615 22.6601 23.7929C22.8086 23.9243 23.0008 23.9964 23.1995 23.9952H23.2879C23.4987 23.9711 23.6913 23.8651 23.8238 23.7003C23.9563 23.5356 24.018 23.3254 23.9954 23.1157C23.8342 21.6735 23.2814 20.3021 22.3962 19.1485C21.5111 17.995 20.3269 17.1027 18.9707 16.5675ZM15.9881 15.9998C15.3521 15.9998 14.7303 15.8122 14.2015 15.4608C13.6726 15.1094 13.2605 14.6099 13.0171 14.0255C12.7737 13.4411 12.71 12.7981 12.8341 12.1777C12.9581 11.5573 13.2644 10.9875 13.7142 10.5402C14.1639 10.0929 14.7369 9.78833 15.3607 9.66492C15.9845 9.54152 16.6311 9.60486 17.2187 9.84692C17.8063 10.089 18.3086 10.4989 18.6619 11.0248C19.0153 11.5508 19.2039 12.1691 19.2039 12.8016C19.2039 13.6498 18.8651 14.4633 18.262 15.0631C17.6589 15.6628 16.841 15.9998 15.9881 15.9998Z" fill="#B1B5C4"/>
</svg>
