<svg width="16" height="12" viewBox="0 0 16 12" fill="none" xmlns="http://www.w3.org/2000/svg">
<path d="M4.5 4C4.36739 4 4.24021 4.05268 4.14645 4.14645C4.05268 4.24021 4 4.36739 4 4.5V7.5C4 7.63261 4.05268 7.75979 4.14645 7.85355C4.24021 7.94732 4.36739 8 4.5 8H11.5C11.6326 8 11.7598 7.94732 11.8536 7.85355C11.9473 7.75979 12 7.63261 12 7.5V4.5C12 4.36739 11.9473 4.24021 11.8536 4.14645C11.7598 4.05268 11.6326 4 11.5 4H10V3H10.5C10.6326 3 10.7598 2.94732 10.8536 2.85355C10.9473 2.75979 11 2.63261 11 2.5C11 2.36739 10.9473 2.24021 10.8536 2.14645C10.7598 2.05268 10.6326 2 10.5 2H5.5C5.36739 2 5.24021 2.05268 5.14645 2.14645C5.05268 2.24021 5 2.36739 5 2.5C5 2.63261 5.05268 2.75979 5.14645 2.85355C5.24021 2.94732 5.36739 3 5.5 3H6V4H4.5ZM5 5H6V7H5V5ZM11 5V7H10V5H11ZM9 3V7H8.5V6.5C8.5 6.36739 8.44732 6.24021 8.35355 6.14645C8.25979 6.05268 8.13261 6 8 6C7.86739 6 7.74021 6.05268 7.64645 6.14645C7.55268 6.24021 7.5 6.36739 7.5 6.5V7H7V3H9Z" fill="#777E91"/>
<path d="M15.5 9H3.5C3.36739 9 3.24021 9.05268 3.14645 9.14645C3.05268 9.24021 3 9.36739 3 9.5C3 9.63261 3.05268 9.75979 3.14645 9.85355C3.24021 9.94732 3.36739 10 3.5 10H15V10.5C15 10.6326 14.9473 10.7598 14.8536 10.8536C14.7598 10.9473 14.6326 11 14.5 11H1.5C1.36739 11 1.24021 10.9473 1.14645 10.8536C1.05268 10.7598 1 10.6326 1 10.5V10H1.5C1.63261 10 1.75979 9.94732 1.85355 9.85355C1.94732 9.75979 2 9.63261 2 9.5V1.5C2 1.36739 2.05268 1.24021 2.14645 1.14645C2.24021 1.05268 2.36739 1 2.5 1H13.5C13.6326 1 13.7598 1.05268 13.8536 1.14645C13.9473 1.24021 14 1.36739 14 1.5V7.5C14 7.63261 14.0527 7.75979 14.1464 7.85355C14.2402 7.94732 14.3674 8 14.5 8C14.6326 8 14.7598 7.94732 14.8536 7.85355C14.9473 7.75979 15 7.63261 15 7.5V1.5C15 1.10218 14.842 0.720644 14.5607 0.43934C14.2794 0.158035 13.8978 0 13.5 0H2.5C2.10218 0 1.72064 0.158035 1.43934 0.43934C1.15804 0.720644 1 1.10218 1 1.5V9H0.5C0.367392 9 0.240215 9.05268 0.146447 9.14645C0.0526784 9.24021 0 9.36739 0 9.5L0 10.5C0 10.8978 0.158035 11.2794 0.43934 11.5607C0.720644 11.842 1.10218 12 1.5 12H14.5C14.8978 12 15.2794 11.842 15.5607 11.5607C15.842 11.2794 16 10.8978 16 10.5V9.5C16 9.36739 15.9473 9.24021 15.8536 9.14645C15.7598 9.05268 15.6326 9 15.5 9Z" fill="#777E91"/>
</svg>
