<svg width="14" height="15" viewBox="0 0 14 15" fill="none" xmlns="http://www.w3.org/2000/svg">
<path fill-rule="evenodd" clip-rule="evenodd" d="M7 14.8511C10.8659 14.8511 14 11.717 14 7.85107C14 3.98517 10.8659 0.851074 7 0.851074C3.13409 0.851074 0 3.98517 0 7.85107C0 11.717 3.13409 14.8511 7 14.8511ZM10.5191 5.96107C10.6034 5.8706 10.6493 5.75093 10.6471 5.62729C10.6449 5.50364 10.5948 5.38567 10.5074 5.29822C10.42 5.21078 10.302 5.16069 10.1783 5.15851C10.0547 5.15633 9.93502 5.20222 9.84454 5.28653L5.754 9.37612L4.18027 7.54021C4.09763 7.44507 3.98071 7.38648 3.85503 7.37722C3.72935 7.36797 3.60511 7.40879 3.50941 7.49079C3.41372 7.57279 3.35434 7.68931 3.34423 7.81492C3.33412 7.94054 3.3741 8.06505 3.45545 8.1613L5.14086 10.1277C5.21219 10.2109 5.29994 10.2785 5.39862 10.3262C5.49729 10.3739 5.60477 10.4007 5.71429 10.4049C5.82381 10.4091 5.93303 10.3907 6.03508 10.3507C6.13713 10.3107 6.22981 10.25 6.30732 10.1725L10.5191 5.96107Z" fill="#145CE6"/>
</svg>
