<svg width="14" height="14" viewBox="0 0 14 14" fill="none" xmlns="http://www.w3.org/2000/svg">
<path d="M0.682003 10.0192C0.244982 10.4568 -0.000488281 11.05 -0.000488281 11.6684C-0.000488281 12.2868 0.244982 12.8799 0.682003 13.3175C1.11957 13.7545 1.71271 14 2.33113 14C2.94956 14 3.5427 13.7545 3.98026 13.3175C4.39249 12.8751 4.6169 12.29 4.60623 11.6854C4.59557 11.0808 4.35065 10.504 3.92308 10.0764C3.49551 9.64886 2.91867 9.40394 2.31409 9.39328C1.70951 9.38261 1.12439 9.60703 0.682003 10.0192ZM2.88344 12.2207C2.73696 12.3672 2.53829 12.4495 2.33113 12.4495C2.12398 12.4495 1.92531 12.3672 1.77883 12.2207C1.63235 12.0742 1.55006 11.8755 1.55006 11.6684C1.55006 11.4612 1.63235 11.2626 1.77883 11.1161C1.85115 11.0432 1.93718 10.9853 2.03197 10.9458C2.12677 10.9063 2.22844 10.886 2.33113 10.886C2.43382 10.886 2.5355 10.9063 2.63029 10.9458C2.72509 10.9853 2.81112 11.0432 2.88344 11.1161C2.95635 11.1884 3.01422 11.2744 3.05371 11.3692C3.0932 11.464 3.11354 11.5657 3.11354 11.6684C3.11354 11.7711 3.0932 11.8727 3.05371 11.9675C3.01422 12.0623 2.95635 12.1484 2.88344 12.2207ZM2.33113 6.22313C2.12482 6.22313 1.92696 6.30509 1.78108 6.45097C1.6352 6.59686 1.55324 6.79472 1.55324 7.00103C1.55324 7.20734 1.6352 7.4052 1.78108 7.55108C1.92696 7.69696 2.12482 7.77892 2.33113 7.77892C3.36268 7.77892 4.35198 8.1887 5.0814 8.91811C5.81081 9.64753 6.22059 10.6368 6.22059 11.6684C6.22059 11.8747 6.30255 12.0725 6.44843 12.2184C6.59432 12.3643 6.79218 12.4463 6.99849 12.4463C7.20479 12.4463 7.40265 12.3643 7.54854 12.2184C7.69442 12.0725 7.77638 11.8747 7.77638 11.6684C7.77638 10.2242 7.20268 8.83919 6.1815 7.81801C5.16032 6.79683 3.7753 6.22313 2.33113 6.22313ZM2.33113 3.11157C2.12482 3.11157 1.92696 3.19352 1.78108 3.33941C1.6352 3.48529 1.55324 3.68315 1.55324 3.88946C1.55324 4.09577 1.6352 4.29363 1.78108 4.43951C1.92696 4.58539 2.12482 4.66735 2.33113 4.66735C4.18792 4.66735 5.96866 5.40496 7.28161 6.7179C8.59455 8.03085 9.33216 9.81159 9.33216 11.6684C9.33216 11.8747 9.41412 12.0725 9.56 12.2184C9.70588 12.3643 9.90374 12.4463 10.1101 12.4463C10.3164 12.4463 10.5142 12.3643 10.6601 12.2184C10.806 12.0725 10.8879 11.8747 10.8879 11.6684C10.8819 9.40003 9.98192 7.22551 8.38313 5.61638C6.774 4.01759 4.59948 3.1176 2.33113 3.11157ZM10.5846 3.41495C8.38997 1.23493 5.42446 0.00792223 2.33113 0C2.12482 0 1.92696 0.0819564 1.78108 0.227839C1.6352 0.373722 1.55324 0.571582 1.55324 0.777892C1.55324 0.984202 1.6352 1.18206 1.78108 1.32794C1.92696 1.47383 2.12482 1.55578 2.33113 1.55578C5.01316 1.55578 7.58534 2.62121 9.48182 4.51769C11.3783 6.41417 12.4437 8.98635 12.4437 11.6684C12.4437 11.8747 12.5257 12.0725 12.6716 12.2184C12.8174 12.3643 13.0153 12.4463 13.2216 12.4463C13.4279 12.4463 13.6258 12.3643 13.7717 12.2184C13.9176 12.0725 13.9995 11.8747 13.9995 11.6684C13.9916 8.57505 12.7646 5.60955 10.5846 3.41495Z" fill="#84878B"/>
</svg>
