<?xml version="1.0" standalone="no"?>
<!DOCTYPE svg PUBLIC "-//W3C//DTD SVG 20010904//EN"
 "http://www.w3.org/TR/2001/REC-SVG-20010904/DTD/svg10.dtd">
<svg version="1.0" xmlns="http://www.w3.org/2000/svg"
 width="2000.000000pt" height="2000.000000pt" viewBox="0 0 2000.000000 2000.000000"
 preserveAspectRatio="xMidYMid meet">

<g transform="translate(0.000000,2000.000000) scale(0.100000,-0.100000)"
fill="#000000" stroke="none">
<path d="M4410 13905 c-215 -26 -404 -73 -588 -145 -142 -55 -180 -76 -178
-97 1 -15 -7 -18 -41 -18 -44 -1 -56 -6 -59 -30 -1 -8 4 -11 13 -8 22 8 13
-37 -10 -51 -13 -8 -20 -8 -27 4 -5 8 -6 18 -3 24 4 5 -3 7 -15 4 -12 -4 -20
-2 -16 3 3 5 -2 6 -11 3 -9 -4 -14 -12 -11 -19 2 -6 0 -18 -4 -25 -7 -11 -12
-11 -27 1 -17 13 -17 13 -4 -4 17 -22 9 -33 -10 -14 -19 19 -39 10 -39 -18 0
-26 -25 -52 -35 -35 -3 5 -2 10 3 10 5 0 9 7 9 15 0 14 -79 -36 -122 -78 -17
-17 -17 -19 -2 -14 17 6 25 -8 8 -15 -5 -1 -2 -10 7 -18 14 -13 15 -12 9 3 -4
11 -1 17 9 17 8 0 13 4 10 9 -3 5 7 19 23 32 16 13 27 27 24 32 -3 5 5 3 18
-4 17 -10 20 -14 9 -16 -8 -2 -28 -22 -44 -45 l-29 -41 22 -16 c14 -11 20 -23
16 -33 -11 -28 -38 -25 -67 6 -32 33 -35 41 -12 32 9 -3 12 -2 9 5 -4 6 -13 8
-20 5 -16 -6 -38 17 -27 29 4 5 1 5 -6 1 -7 -4 -9 -12 -6 -18 4 -7 2 -8 -4 -4
-14 8 -79 -48 -145 -124 -12 -15 -15 -17 -7 -5 8 11 0 7 -18 -9 -32 -30 -45
-50 -17 -26 10 9 15 9 15 1 0 -17 41 -13 55 6 7 9 17 13 24 9 8 -5 7 -11 -4
-22 -17 -18 -19 -33 -5 -54 9 -13 13 -12 29 8 20 23 41 29 41 12 0 -5 -8 -18
-18 -28 -10 -10 -26 -29 -35 -42 l-17 -24 -55 59 -55 58 -25 -23 c-27 -26 -34
-40 -10 -20 13 11 18 10 30 -6 17 -22 19 -40 5 -49 -5 -3 -10 2 -10 11 0 10
-3 15 -6 11 -4 -3 -4 -17 0 -30 4 -19 14 -26 46 -31 22 -3 40 -10 40 -15 0
-14 -49 -31 -90 -31 -22 0 -45 -7 -54 -16 -20 -20 -20 -20 4 -46 15 -16 17
-25 9 -35 -16 -18 -33 -16 -53 6 -10 11 -14 25 -10 36 6 14 3 16 -15 10 -15
-4 -23 -2 -27 10 -6 14 -8 14 -25 -1 -10 -9 -16 -20 -14 -24 3 -4 -2 -10 -10
-13 -7 -3 -22 -21 -31 -39 l-17 -32 32 32 c36 35 49 39 57 17 8 -21 -5 -38
-20 -26 -8 7 -12 4 -13 -10 -1 -11 7 -25 18 -32 22 -14 26 -57 5 -57 -7 0 -21
11 -30 25 -9 14 -23 25 -31 25 -8 0 -15 5 -15 10 0 25 -18 4 -62 -67 -63 -106
-70 -122 -62 -135 4 -7 3 -8 -4 -4 -8 4 -25 -21 -48 -71 -20 -43 -37 -82 -38
-88 -1 -5 -10 -25 -20 -43 -20 -39 -118 -333 -653 -1961 -24 -74 -45 -142 -47
-150 -2 -9 -8 -27 -13 -42 -6 -14 -100 -295 -208 -625 -108 -329 -215 -651
-236 -714 -22 -63 -38 -123 -36 -132 3 -11 1 -15 -6 -11 -6 4 -8 -2 -5 -15 4
-12 3 -20 -1 -17 -7 4 -91 -238 -91 -263 0 -9 229 -12 1018 -13 559 0 1042 -3
1072 -5 58 -6 219 6 185 14 -11 2 -34 20 -52 39 -30 34 -31 35 -13 53 30 30
70 53 78 45 4 -4 -3 -14 -15 -22 -23 -15 -30 -38 -15 -47 4 -2 22 2 40 11 44
22 50 10 13 -26 l-30 -30 31 -6 c23 -5 27 -9 17 -16 -8 -5 412 -9 991 -9 553
0 2537 -3 4410 -6 3516 -7 3525 -7 3755 32 756 127 1404 605 1746 1286 73 146
114 256 248 668 117 358 352 1074 392 1190 10 30 131 399 269 820 138 421 298
907 356 1082 57 174 104 323 104 332 0 15 -477 16 -5632 15 -4532 -1 -5654 -4
-5738 -14z m1800 -1 c0 -3 -7 -12 -15 -21 -8 -8 -13 -19 -10 -24 9 -14 35 -11
52 6 24 24 35 7 16 -25 -22 -38 -12 -47 29 -27 18 9 34 14 36 12 6 -6 -22 -45
-33 -45 -6 0 -16 -9 -23 -21 -13 -20 -14 -19 -62 21 -61 51 -72 82 -40 110 22
19 50 27 50 14z m163 -15 c8 -13 6 -21 -5 -33 -14 -14 -19 -12 -53 20 l-38 35
43 -3 c26 -2 47 -9 53 -19z m2557 11 c0 -5 -6 -10 -14 -10 -8 0 -18 5 -21 10
-3 6 3 10 14 10 12 0 21 -4 21 -10z m-4533 -16 c-3 -3 -12 -4 -19 -1 -8 3 -5
6 6 6 11 1 17 -2 13 -5z m1708 -94 c-10 -11 -24 -20 -32 -20 -7 0 -13 -7 -13
-15 0 -22 42 -18 69 6 17 16 26 18 34 10 8 -8 5 -16 -12 -32 -22 -21 -24 -40
-4 -46 6 -2 18 3 27 12 9 9 24 15 34 13 14 -3 9 -12 -24 -46 l-42 -44 -62 62
-62 61 43 40 c28 26 46 36 53 29 6 -6 3 -16 -9 -30z m-83 -97 c24 -29 28 -51
12 -68 -14 -13 -13 -15 13 -17 15 0 36 -1 46 0 21 2 22 -6 0 -30 -12 -13 -30
-18 -68 -18 -61 0 -88 -20 -67 -48 23 -32 25 -44 10 -58 -12 -13 -20 -9 -61
30 -26 24 -47 49 -47 55 0 6 -7 11 -15 11 -8 0 -15 5 -15 10 0 6 7 10 15 10 8
0 15 4 15 9 0 9 84 96 115 117 25 18 29 18 47 -3z m4918 -100 c0 -65 8 -73 66
-73 52 0 54 -1 42 -21 -11 -17 -20 -20 -56 -16 -50 5 -63 -9 -41 -49 11 -21
10 -27 -3 -40 -14 -14 -17 -13 -36 10 -11 14 -23 26 -26 26 -7 0 -65 62 -66
70 0 19 20 31 41 25 21 -7 22 -8 5 -21 -17 -12 -16 -13 10 -11 28 3 29 5 26
51 -2 46 9 76 29 76 5 0 9 -12 9 -27z m-7437 -59 c14 -5 13 -8 -1 -25 -17 -20
-42 -26 -42 -10 0 5 7 12 16 15 8 3 12 10 9 16 -7 11 -3 12 18 4z m2307 -24
c0 -10 -8 -24 -17 -29 -17 -10 -17 -12 2 -26 18 -15 21 -14 37 5 10 12 22 18
28 15 8 -5 6 -12 -4 -24 -15 -16 -18 -84 -4 -75 13 8 17 -14 4 -25 -10 -9 -20
-5 -41 16 -48 48 -65 82 -54 112 19 49 49 69 49 31z m5001 -59 c21 -17 22 -22
11 -40 -7 -13 -8 -21 -2 -21 5 0 10 5 10 10 0 6 7 10 15 10 8 0 15 -3 15 -7
-1 -13 -27 -43 -37 -43 -11 0 -53 46 -53 59 0 5 -6 11 -12 14 -10 3 -10 7 1
20 17 22 24 21 52 -2z m-36 -82 c14 -21 -7 -59 -60 -111 -30 -29 -55 -55 -55
-58 0 -3 10 -10 22 -15 29 -13 32 -28 9 -42 -21 -13 -36 -1 -110 80 l-23 26
63 65 c35 36 75 69 89 74 25 10 53 2 65 -19z m115 -28 c-10 -20 -30 -29 -30
-14 0 10 33 44 37 39 3 -2 0 -14 -7 -25z m-7687 -36 c-2 -7 -13 -16 -24 -21
-17 -8 -18 -11 -6 -28 14 -19 15 -19 37 2 26 24 36 27 44 14 3 -5 -13 -26 -35
-47 l-40 -38 -45 46 c-25 26 -50 47 -56 47 -9 0 -8 4 1 13 10 10 15 8 26 -6 7
-10 16 -14 19 -9 3 6 -1 13 -10 16 -8 3 -13 10 -9 15 3 6 18 3 35 -7 28 -16
58 -9 31 7 -11 7 -10 11 5 19 21 11 36 -2 27 -23z m7341 -110 c-3 -7 -12 -16
-20 -19 -8 -3 -11 -12 -8 -21 7 -17 43 -11 56 9 5 8 11 7 19 -1 10 -10 8 -16
-8 -30 -21 -19 -20 -43 2 -43 7 0 18 7 25 15 7 8 16 15 21 15 19 0 7 -26 -27
-61 l-35 -36 -55 57 c-30 31 -54 60 -54 65 0 4 15 22 33 39 31 31 61 37 51 11z
m-104 -96 c0 -5 -11 -19 -25 -31 -13 -11 -22 -25 -19 -30 7 -11 43 -1 65 19
14 12 17 12 23 -3 4 -11 1 -21 -9 -26 -17 -10 -20 -34 -5 -43 5 -3 21 2 35 11
14 9 28 14 31 11 10 -9 -35 -65 -57 -72 -22 -7 -59 19 -59 42 0 7 -6 13 -14
13 -8 0 -24 12 -35 26 l-21 26 37 39 c33 35 53 42 53 18z m-2562 -76 c-3 -32
0 -38 22 -44 14 -4 43 -7 64 -8 39 -1 39 -1 21 -21 -15 -17 -26 -20 -61 -14
-38 5 -43 4 -49 -17 -5 -15 -2 -26 9 -34 14 -11 14 -14 -2 -29 -17 -15 -22
-13 -80 40 -52 48 -59 58 -47 70 15 16 35 19 35 5 0 -5 11 -11 23 -13 22 -4
24 -2 22 36 -3 43 8 66 32 66 11 0 14 -10 11 -37z m2484 -57 c14 -32 4 -56
-23 -56 -15 0 -19 5 -15 15 4 10 -1 15 -15 15 -11 0 -27 -7 -35 -15 -9 -8 -22
-15 -30 -15 -12 0 -11 6 6 30 39 55 92 68 112 26z m-4312 -69 c35 -14 67 -24
72 -21 5 3 7 1 6 -4 -2 -5 17 -24 42 -43 44 -34 129 -135 129 -154 0 -5 -34
-36 -77 -67 -42 -32 -101 -76 -130 -100 l-53 -42 -40 46 c-164 193 -469 -1
-544 -345 -25 -112 -18 -283 14 -354 26 -59 94 -128 117 -119 8 3 13 2 10 -3
-7 -11 71 -31 121 -31 59 0 113 19 177 61 32 21 62 39 68 39 5 0 23 -22 40
-50 17 -27 35 -47 41 -43 6 3 7 1 3 -5 -9 -15 43 -94 57 -85 6 3 7 1 3 -5 -4
-6 -1 -20 6 -31 16 -26 -4 -49 -84 -98 -57 -35 -74 -51 -41 -39 10 4 14 3 9
-1 -4 -4 -17 -9 -29 -10 -12 -1 -62 -17 -112 -34 -83 -31 -100 -33 -215 -34
-139 0 -212 18 -320 77 -128 70 -234 230 -267 399 -23 125 -13 342 21 469 57
207 168 380 313 490 34 26 60 50 57 53 -3 3 0 8 7 13 8 5 10 3 4 -6 -5 -8 -3
-11 6 -8 8 3 13 11 11 17 -1 7 2 10 7 6 6 -3 33 6 60 20 44 22 149 55 221 69
14 2 70 3 126 1 79 -2 113 -8 164 -28z m2510 4 c85 -27 180 -83 249 -148 56
-54 68 -62 55 -41 -4 7 -3 8 4 4 22 -14 4 -34 -192 -219 -22 -20 -43 -37 -48
-37 -5 0 -26 16 -46 35 -110 105 -265 125 -338 44 -61 -67 -32 -125 101 -205
31 -19 60 -34 66 -34 5 0 9 -5 9 -11 0 -6 7 -8 16 -5 8 3 12 2 9 -3 -3 -5 31
-31 76 -58 104 -61 164 -119 195 -188 31 -67 43 -174 31 -263 -5 -37 -10 -75
-10 -84 -1 -10 -4 -18 -7 -18 -8 0 -35 -73 -31 -85 1 -5 0 -7 -4 -3 -4 4 -22
-13 -40 -37 -53 -69 -105 -112 -180 -149 -236 -118 -525 -95 -731 57 -67 48
-165 152 -164 173 1 5 37 36 82 69 45 33 103 79 130 103 27 23 53 42 58 42 5
0 18 -13 29 -29 32 -44 141 -123 163 -118 10 3 16 1 13 -3 -16 -26 152 -42
209 -20 46 17 77 54 83 97 5 35 1 45 -27 77 -19 22 -39 35 -47 32 -8 -3 -12
-2 -9 3 8 12 -162 113 -176 105 -6 -4 -8 -3 -5 3 4 6 -16 26 -46 44 -76 49
-125 97 -162 160 -89 151 -79 345 26 500 21 31 36 59 34 63 -3 3 -2 4 1 1 9
-6 69 45 69 59 0 6 9 11 20 11 11 0 19 5 18 12 -2 8 4 10 14 6 11 -4 14 -3 9
6 -4 6 -4 10 1 9 4 -2 33 7 63 20 136 55 301 64 430 23z m-809 -5 c15 -13 25
-27 22 -30 -4 -3 -1 -6 5 -6 17 0 15 -16 -3 -34 -14 -13 -19 -12 -46 14 -20
18 -29 33 -24 41 6 9 3 11 -9 6 -14 -6 -15 -3 -6 13 14 26 26 25 61 -4z m-367
-43 c3 -27 8 -84 12 -128 7 -86 22 -116 42 -84 13 20 42 26 42 9 0 -5 -6 -13
-14 -17 -8 -4 -17 -21 -21 -38 -4 -16 -3 -25 2 -20 4 6 23 18 41 27 31 16 32
16 32 -2 0 -10 -4 -21 -10 -25 -11 -7 -2 -35 12 -35 6 0 16 7 23 17 7 9 17 13
24 9 8 -5 5 -16 -10 -37 -11 -16 -25 -27 -30 -24 -5 4 -9 -1 -9 -9 0 -9 -5
-16 -12 -16 -17 0 -88 71 -88 89 0 8 -2 12 -5 9 -3 -3 -1 -49 5 -104 6 -54 29
-290 51 -524 22 -234 44 -461 48 -505 5 -44 6 -83 4 -87 -2 -5 -93 -8 -202 -8
l-198 0 -7 77 c-3 42 -6 120 -6 175 l0 98 -208 0 -208 0 -29 -62 c-15 -35 -48
-106 -72 -158 -24 -52 -41 -100 -38 -108 2 -7 0 -10 -5 -7 -6 3 -10 1 -10 -4
0 -8 -72 -11 -219 -11 l-219 0 30 55 c16 30 26 60 22 66 -4 8 -3 9 4 5 14 -8
96 150 86 166 -5 7 -2 8 6 3 10 -6 12 -4 7 9 -4 9 -3 15 2 12 12 -8 134 232
125 246 -4 6 -3 8 3 5 14 -9 367 669 357 684 -4 7 -3 9 4 5 10 -6 37 41 129
227 l34 67 233 0 234 0 6 -47z m2221 25 c-3 -13 -25 -120 -49 -238 -24 -118
-47 -227 -50 -242 -3 -16 -8 -39 -11 -53 l-5 -25 224 0 224 0 52 268 c28 147
54 277 57 290 5 22 6 22 205 22 187 0 200 -1 193 -17 -10 -24 -304 -1482 -305
-1510 0 -22 -1 -22 -196 -25 -108 -2 -197 -1 -199 2 -2 4 102 533 120 608 l5
22 -224 0 -224 0 -6 -27 c-3 -16 -28 -145 -56 -288 -27 -143 -53 -272 -56
-287 l-6 -28 -199 0 c-193 0 -199 1 -190 19 16 30 26 161 12 161 -6 0 -11 10
-12 23 -1 21 -1 21 -9 -3 -4 -14 -8 -20 -9 -15 -1 6 -21 -12 -45 -40 -44 -50
-45 -50 -20 -53 36 -5 57 5 50 23 -3 8 0 15 6 15 7 0 8 -16 4 -49 -4 -29 -2
-52 3 -56 7 -4 6 -14 -1 -31 l-11 -24 -22 20 c-12 11 -29 20 -38 20 -10 0 -17
8 -17 18 0 11 -9 27 -20 37 -11 10 -20 23 -20 28 0 18 144 147 164 147 15 0
17 -5 11 -27 -5 -22 -4 -25 6 -16 6 6 12 31 13 55 1 24 5 49 9 55 6 9 95 443
139 673 22 114 110 548 113 558 3 9 52 12 200 12 l195 0 -5 -22z m-1932 -37
c32 -12 41 -49 20 -81 -25 -39 -65 -80 -80 -80 -23 0 -14 23 23 61 34 35 38
59 10 59 -6 0 -29 -16 -50 -35 -33 -30 -37 -38 -31 -64 4 -20 11 -28 20 -25 8
3 19 -5 26 -18 6 -13 18 -27 26 -31 12 -8 11 -12 -6 -29 -21 -19 -21 -19 -65
27 -67 70 -67 82 7 158 34 36 65 66 69 66 4 1 18 -3 31 -8z m161 -30 c3 -4 -3
-16 -13 -25 -22 -20 -40 -4 -21 19 14 17 26 19 34 6z m-2984 -381 c21 0 46 -3
55 -6 15 -6 14 -8 -1 -25 -13 -15 -25 -17 -54 -13 -44 7 -60 -9 -36 -35 21
-23 20 -34 -3 -48 -16 -10 -26 -5 -75 44 -53 53 -55 57 -40 74 16 18 18 18 51
-11 32 -29 60 -43 35 -18 -19 19 -15 94 6 114 16 17 17 16 20 -29 l3 -47 39 0z
m2610 16 c0 -8 -4 -18 -10 -21 -5 -3 -10 3 -10 14 0 12 5 21 10 21 6 0 10 -6
10 -14z m-2750 -163 c-20 -14 -24 -13 -56 18 -38 37 -42 53 -16 68 14 9 24 3
56 -30 l38 -41 -22 -15z m-87 3 c31 -24 21 -60 -33 -116 -46 -47 -49 -54 -36
-72 15 -21 10 -58 -8 -58 -14 1 -46 25 -46 35 0 4 -16 22 -35 41 -33 31 -45
54 -27 54 4 0 36 29 72 65 67 67 83 74 113 51z m141 -29 c-7 -18 -44 -40 -44
-26 0 12 29 38 42 39 4 0 5 -6 2 -13z m-350 -145 c3 -5 -4 -15 -15 -22 -21
-16 -26 -50 -6 -50 6 0 21 7 31 15 40 30 50 9 14 -27 l-23 -23 22 -3 c12 -2
32 2 43 8 12 6 24 9 27 6 7 -7 -57 -88 -67 -84 -16 6 -90 78 -90 87 0 6 -8 14
-17 20 -15 8 -15 11 -3 25 7 10 19 15 27 12 8 -4 17 4 23 19 9 25 24 32 34 17z
m-109 -103 c4 -5 0 -18 -7 -27 -8 -9 -18 -23 -22 -29 -11 -19 29 -16 48 3 25
24 37 7 18 -26 -19 -32 -10 -51 16 -32 52 38 64 25 21 -22 -25 -28 -35 -33
-46 -25 -10 9 -13 8 -13 -2 0 -7 -20 7 -45 31 -25 24 -45 51 -45 59 0 17 47
81 60 81 5 0 12 -5 15 -11z m-90 -121 c20 -9 25 -18 25 -49 0 -34 3 -38 29
-41 27 -3 28 -5 16 -22 -10 -13 -31 -20 -67 -24 -69 -7 -97 -34 -64 -61 18
-15 9 -51 -13 -51 -10 0 -28 11 -41 25 -19 21 -21 25 -7 25 9 0 17 5 17 11 0
6 -9 9 -20 6 -21 -5 -64 26 -58 43 4 14 140 150 149 150 5 0 20 -5 34 -12z
m3690 -58 c-4 -6 -1 -19 6 -28 12 -16 12 -16 -5 0 -16 14 -15 38 0 38 3 0 2
-5 -1 -10z m-3892 -117 c5 -8 -17 -34 -28 -33 -3 0 -5 -2 -5 -5 0 -3 0 -12 0
-20 0 -22 27 -18 44 6 15 22 36 18 36 -7 0 -14 -11 -18 -37 -15 -7 1 -13 -3
-13 -9 0 -5 5 -10 10 -10 6 0 10 -5 10 -11 0 -6 10 -19 22 -29 22 -17 22 -19
5 -38 -19 -20 -23 -17 -125 94 -12 12 -8 20 25 49 39 36 49 40 56 28z m4898
-276 c-8 -8 -11 -2 -11 19 0 40 14 54 18 19 2 -15 -1 -32 -7 -38z m-171 -42
c0 -8 -9 -19 -20 -25 -11 -6 -20 -15 -20 -19 0 -17 33 -21 50 -6 17 15 40 20
40 8 0 -4 -9 -16 -20 -28 -18 -19 -18 -24 -6 -41 14 -19 15 -18 35 5 15 18 25
21 32 14 8 -8 0 -22 -26 -49 l-37 -37 -37 39 c-20 21 -49 48 -64 58 l-27 19
40 38 c43 41 60 48 60 24z m-925 -15 c-3 -5 -12 -10 -18 -10 -7 0 -6 4 3 10
19 12 23 12 15 0z m825 -89 c0 -5 -7 -11 -15 -15 -19 -7 -20 -46 -1 -46 7 0
19 7 26 15 7 8 16 15 21 15 14 0 10 -30 -6 -46 -8 -9 -15 -20 -15 -25 0 -15
47 -10 54 6 7 20 26 19 26 -1 0 -19 -50 -74 -67 -74 -18 0 -113 97 -113 116 0
9 12 27 28 40 27 24 62 32 62 15z m-2520 -119 c54 -4 68 -15 48 -36 -11 -10
-27 -13 -51 -9 -25 4 -41 1 -51 -10 -13 -13 -13 -17 4 -32 26 -24 25 -45 -1
-45 -12 0 -44 23 -77 56 -51 51 -54 56 -39 71 15 16 18 15 40 -5 31 -29 37
-28 37 8 0 17 5 30 13 31 10 0 10 2 0 6 -18 7 -16 29 5 53 17 20 17 20 22 -32
l5 -53 45 -3z m2425 3 c13 -11 18 -25 17 -49 -2 -31 1 -35 28 -41 16 -4 30 -9
30 -12 0 -15 -34 -34 -62 -35 -76 -2 -81 -5 -75 -50 3 -22 3 -47 0 -54 -7 -18
-32 -18 -39 1 -3 8 -14 17 -25 20 -10 4 -19 13 -19 21 0 8 -12 26 -27 39 l-28
23 24 26 c14 14 30 26 38 26 7 0 13 6 13 14 0 16 77 86 94 86 6 0 20 -7 31
-15z m-2588 -99 l43 -34 -25 -16 c-24 -16 -26 -16 -60 18 -37 38 -43 51 -22
59 20 9 20 8 64 -27z m-71 -53 c14 -19 19 -67 7 -60 -5 3 -14 -1 -21 -9 -7 -8
-10 -14 -5 -14 4 0 -2 -7 -13 -16 -10 -8 -12 -12 -4 -9 8 4 0 -5 -17 -20 -37
-30 -40 -41 -18 -65 15 -17 11 -50 -6 -50 -5 0 -35 25 -66 55 l-58 54 55 57
c30 31 62 65 70 75 20 23 59 24 76 2z m144 -21 c0 -5 -8 -17 -19 -26 -15 -14
-19 -14 -24 -3 -3 8 0 20 6 26 13 13 37 15 37 3z m2300 -6 c0 -8 -7 -21 -15
-30 -8 -8 -15 -19 -15 -25 0 -18 48 -12 59 6 5 10 13 14 17 10 4 -4 1 -20 -9
-36 -15 -26 -15 -29 1 -44 11 -12 12 -17 4 -17 -7 0 -11 -4 -7 -10 3 -5 13 -6
23 -3 15 6 15 5 3 -10 -7 -9 -17 -17 -22 -17 -5 0 -35 26 -67 58 l-58 58 35
37 c37 39 51 46 51 23z m-2660 -155 c-5 -11 -15 -21 -22 -24 -9 -3 -8 -10 7
-26 l19 -22 16 20 c10 14 19 18 29 12 11 -7 10 -12 -8 -22 -26 -17 -28 -49 -3
-49 9 0 23 10 30 21 10 15 17 18 24 11 7 -7 2 -21 -17 -46 -30 -40 -65 -48
-65 -16 0 11 -6 20 -12 20 -17 1 -95 70 -80 70 7 0 12 6 12 14 0 17 47 56 67
56 10 0 11 -5 3 -19z m4938 -27 c289 -60 495 -261 573 -559 33 -125 44 -282
30 -434 -32 -345 -155 -619 -374 -833 -216 -212 -500 -317 -780 -288 -352 36
-580 234 -674 586 -24 90 -26 116 -27 289 0 217 14 315 71 480 29 83 114 267
133 285 3 3 24 30 46 60 84 113 130 160 229 234 115 87 269 157 400 181 100
19 281 18 373 -1z m1694 -104 c100 -320 267 -916 310 -1114 29 -129 53 -234
54 -233 2 2 10 87 24 282 16 209 37 373 70 540 40 204 119 587 125 602 6 18
485 19 485 1 0 -12 -392 -1979 -405 -2036 l-5 -22 -247 2 -247 3 -88 300 c-48
165 -112 386 -142 490 -31 105 -76 289 -101 409 -44 213 -55 255 -55 205 0
-46 -30 -374 -46 -494 -12 -99 -153 -837 -170 -897 -5 -17 -25 -18 -244 -18
-131 0 -241 3 -243 8 -2 4 11 81 29 172 18 91 110 548 204 1015 93 468 172
856 175 863 3 10 58 12 247 10 l243 -3 27 -85z m-6727 40 c3 -5 -3 -15 -15
-22 -11 -7 -20 -21 -20 -30 0 -26 37 -23 51 4 11 20 12 20 22 3 8 -14 5 -22
-14 -36 -20 -15 -21 -19 -10 -33 13 -15 16 -15 36 4 12 12 29 18 37 15 13 -5
8 -15 -23 -48 l-38 -42 -61 60 c-33 33 -60 62 -60 66 0 3 12 11 26 17 14 7 23
16 19 21 -3 6 3 14 12 20 23 13 30 13 38 1z m-2565 -80 l5 -45 48 -7 c85 -12
77 -33 -11 -33 -60 0 -64 -4 -43 -47 12 -23 11 -29 -3 -43 -16 -16 -21 -13
-76 44 -57 59 -59 62 -42 82 17 19 17 19 35 -6 10 -14 23 -25 28 -25 5 0 9 30
9 66 0 62 1 65 23 62 18 -2 23 -11 27 -48z m2477 -50 c15 -18 17 -50 3 -50 -5
0 -10 -4 -10 -9 0 -12 57 -34 69 -26 6 3 11 2 11 -2 0 -17 -46 -38 -88 -40
-24 -1 -50 -7 -58 -14 -20 -17 -17 -47 6 -59 18 -10 19 -11 2 -30 -15 -18 -18
-19 -28 -5 -6 8 -14 15 -18 15 -4 0 -27 19 -51 43 l-45 43 72 76 c76 80 107
94 135 58z m-2582 -106 c14 -22 14 -26 0 -40 -14 -15 -20 -12 -60 25 -43 40
-44 41 -23 55 18 13 23 13 44 0 12 -9 30 -26 39 -40z m-77 -52 c12 -35 4 -51
-56 -108 -44 -43 -45 -44 -27 -64 21 -23 14 -50 -13 -50 -22 0 -102 82 -102
104 0 7 30 43 68 80 77 76 113 86 130 38z m122 -27 c-16 -19 -30 -19 -30 0 0
17 33 38 38 24 2 -5 -2 -16 -8 -24z m2315 15 c3 -5 -4 -19 -15 -30 -11 -11
-18 -25 -15 -30 10 -16 43 -11 54 8 8 14 12 15 23 4 11 -11 10 -15 -4 -23 -24
-13 -23 -30 3 -58 19 -20 20 -24 6 -38 -13 -13 -17 -13 -37 4 -13 10 -32 27
-42 38 -10 11 -28 29 -39 41 -20 20 -20 20 13 57 35 39 43 43 53 27z m-2660
-141 c4 -5 0 -18 -7 -27 -8 -9 -18 -23 -22 -29 -10 -18 29 -17 47 2 13 13 16
13 27 0 12 -15 11 -16 -12 -19 -17 -1 -23 -35 -9 -49 7 -7 16 -6 29 6 21 19
42 22 42 7 0 -6 -15 -26 -33 -45 l-32 -33 -58 58 c-58 59 -58 59 -38 79 10 10
24 29 31 40 12 23 25 27 35 10z m-118 -138 c-22 -37 -21 -41 3 -41 10 0 24 9
31 21 8 16 14 18 22 9 9 -9 6 -16 -12 -31 -26 -21 -22 -49 7 -49 11 0 26 10
35 23 14 20 16 21 22 4 6 -13 -2 -27 -31 -52 l-38 -34 -58 59 -58 58 38 39
c42 43 66 40 39 -6z m-63 -97 c3 -9 6 -32 6 -51 0 -34 1 -35 30 -31 27 4 30 2
24 -16 -9 -29 -6 -28 -78 -33 -55 -5 -67 -9 -72 -26 -4 -13 -1 -25 10 -32 20
-15 20 -24 0 -46 -14 -16 -18 -13 -62 35 -26 28 -50 53 -54 54 -19 8 -4 31 42
66 28 21 50 42 50 48 0 17 30 40 46 34 8 -3 12 -2 9 4 -3 6 5 10 18 10 14 0
28 -7 31 -16z m4903 -113 c-5 -37 -3 -39 25 -45 17 -3 43 -6 59 -6 22 0 27 -4
26 -20 -1 -17 -8 -20 -52 -20 -70 0 -97 -27 -49 -48 26 -13 25 -25 -5 -41 -14
-8 -29 1 -74 45 -61 58 -65 65 -42 84 12 10 20 8 41 -9 33 -26 39 -22 35 30
-2 40 11 69 32 69 5 0 7 -16 4 -39z m-5137 -83 c-11 -10 -20 -23 -20 -28 0
-17 49 -11 59 8 9 16 10 16 17 -2 5 -12 2 -22 -9 -28 -21 -11 -22 -44 -2 -52
16 -6 21 -41 6 -50 -10 -6 -121 102 -121 117 0 5 15 23 33 41 23 23 36 30 45
23 10 -8 8 -14 -8 -29z m5025 -58 c24 -25 27 -34 19 -48 -17 -26 -34 -21 -66
20 -49 59 -7 84 47 28z m-65 -61 c18 -32 3 -67 -45 -112 -50 -44 -55 -61 -25
-77 17 -9 18 -14 7 -30 -6 -11 -16 -20 -22 -20 -17 0 -94 82 -89 95 3 7 1 16
-5 20 -6 3 -11 1 -11 -5 0 -6 -4 -9 -9 -6 -10 7 114 139 139 149 30 11 49 7
60 -14z m127 -34 c-7 -16 -37 -21 -37 -5 0 10 32 31 39 25 2 -2 1 -11 -2 -20z
m-347 -138 c0 -7 -9 -18 -20 -25 -12 -7 -18 -17 -15 -22 9 -15 41 -12 55 5 20
24 31 3 18 -33 -15 -38 -5 -51 20 -29 19 17 56 24 50 9 -1 -5 -22 -25 -44 -45
l-42 -37 -57 61 -56 62 32 33 c34 35 59 44 59 21z m-107 -94 c4 -3 -3 -17 -15
-30 -16 -17 -19 -26 -11 -34 8 -8 19 -6 41 10 37 26 42 26 42 3 0 -11 -11 -24
-25 -30 -32 -15 -32 -30 2 -38 19 -5 30 -2 40 11 10 14 16 16 24 8 9 -9 2 -21
-26 -47 -21 -20 -41 -36 -44 -36 -4 0 -31 25 -59 56 -42 45 -50 59 -41 70 6 8
15 11 20 8 5 -3 8 -2 7 3 -3 9 24 53 33 53 3 0 9 -3 12 -7z m-2563 -68 c0 -21
-5 -35 -12 -35 -16 -1 17 -21 40 -25 10 -2 35 -4 56 -4 38 -1 39 -1 21 -21
-14 -15 -26 -19 -54 -14 -50 8 -66 -11 -45 -51 12 -23 12 -30 2 -37 -22 -14
-30 -9 -85 46 -57 59 -61 66 -38 66 8 0 15 8 15 18 1 13 6 11 25 -11 29 -32
50 -27 40 10 -7 28 11 93 26 93 5 0 9 -16 9 -35z m2478 -58 c6 -6 12 -28 14
-47 3 -31 7 -35 34 -38 30 -3 31 -5 20 -27 -10 -22 -18 -25 -63 -25 -33 0 -57
-6 -67 -16 -20 -19 -20 -24 1 -39 18 -13 12 -42 -10 -51 -14 -5 -117 89 -117
107 0 12 122 134 141 142 23 9 36 8 47 -6z m-2591 -95 c26 -32 29 -41 18 -55
-17 -24 -24 -22 -60 21 -25 28 -31 41 -24 55 15 26 33 21 66 -21z m-59 -86 c2
-21 -1 -36 -7 -36 -6 0 -11 -6 -11 -13 0 -7 -16 -27 -35 -44 -38 -34 -45 -66
-17 -82 16 -10 16 -12 -2 -26 -18 -13 -23 -11 -61 23 -22 20 -49 47 -59 60
-18 23 -18 23 46 86 76 75 95 86 122 76 15 -5 22 -18 24 -44z m132 5 c0 -14
-28 -33 -39 -26 -7 4 -7 11 2 20 13 16 37 20 37 6z m2305 -1 c4 -6 -4 -19 -17
-29 l-23 -19 48 -47 c45 -43 56 -70 29 -70 -14 0 -121 87 -122 99 0 11 61 75
72 76 4 0 10 -5 13 -10z m55 -51 c0 -6 -7 -17 -15 -26 -13 -12 -19 -13 -30 -3
-13 11 -13 14 2 26 22 16 43 18 43 3z m-2710 -99 c0 -5 -4 -10 -8 -10 -5 0
-14 -11 -20 -25 -16 -34 3 -43 34 -14 18 17 27 20 36 11 8 -8 5 -16 -12 -30
-15 -12 -21 -25 -17 -35 8 -22 23 -21 47 3 24 24 30 25 30 4 0 -8 -14 -28 -32
-44 -31 -28 -32 -29 -60 -12 -15 9 -31 24 -34 34 -3 9 -14 20 -24 23 -28 9
-35 43 -13 67 26 30 73 48 73 28z m-113 -95 c3 -9 -2 -24 -12 -35 -9 -10 -14
-24 -10 -29 9 -16 35 -13 41 4 7 16 34 21 34 6 0 -5 -7 -14 -15 -21 -17 -14
-20 -46 -6 -55 5 -3 17 3 27 12 9 9 23 18 30 19 25 4 15 -22 -22 -55 -36 -33
-36 -33 -50 -12 -9 12 -22 21 -30 21 -8 0 -14 4 -14 9 0 5 -14 23 -30 40 l-31
30 31 27 c16 15 30 33 30 41 0 18 19 17 27 -2z m-79 -128 c6 -6 12 -28 14 -47
3 -31 7 -36 36 -40 l34 -5 -25 -23 c-18 -17 -32 -22 -46 -17 -12 3 -37 1 -56
-5 -27 -9 -35 -17 -35 -35 0 -13 7 -28 16 -33 15 -8 15 -11 -1 -30 -18 -20
-18 -20 -81 41 -49 47 -61 64 -52 74 6 7 17 13 24 13 8 0 14 6 14 14 0 7 23
34 51 60 51 46 87 58 107 33z"/>
<path d="M5957 13640 c-14 -11 -30 -20 -36 -20 -6 0 -15 -10 -22 -21 -9 -17
-8 -25 5 -37 15 -15 19 -13 55 22 62 60 60 105 -2 56z"/>
<path d="M10910 13435 c0 -10 29 -24 34 -17 3 6 -3 12 -14 15 -11 3 -20 4 -20
2z"/>
<path d="M10658 13308 c-43 -45 -43 -44 -23 -65 14 -14 20 -11 60 31 25 25 45
53 45 61 0 28 -44 14 -82 -27z"/>
<path d="M7026 12461 c-26 -66 -44 -126 -40 -132 4 -7 3 -9 -2 -6 -6 3 -27
-36 -48 -86 -20 -51 -41 -100 -47 -110 -5 -9 -20 -42 -34 -72 l-24 -55 136 0
136 0 -7 68 c-3 37 -6 157 -7 267 -1 110 -5 210 -8 223 -5 19 -16 0 -55 -97z
m50 -202 c3 -6 2 -14 -4 -18 -13 -8 -17 -32 -12 -71 2 -24 3 -24 10 5 6 23 8
14 7 -35 0 -36 -2 -53 -4 -37 -2 15 -9 25 -14 22 -5 -4 -9 0 -9 8 0 7 -11 19
-25 25 -30 14 -32 41 -5 70 11 12 20 26 20 32 0 13 27 13 36 -1z"/>
<path d="M4559 12242 c-9 -4 -29 -22 -44 -40 -25 -29 -26 -35 -13 -48 13 -13
20 -9 61 28 26 23 47 48 47 55 0 14 -24 16 -51 5z"/>
<path d="M4430 11959 c0 -5 5 -7 10 -4 6 3 10 8 10 11 0 2 -4 4 -10 4 -5 0
-10 -5 -10 -11z"/>
<path d="M4118 11808 c-28 -32 -34 -45 -26 -55 15 -19 28 -16 54 12 13 14 27
25 32 25 6 0 13 7 16 16 22 58 -25 59 -76 2z"/>
<path d="M8570 11230 c0 -5 5 -10 10 -10 6 0 10 5 10 10 0 6 -4 10 -10 10 -5
0 -10 -4 -10 -10z"/>
<path d="M8445 11096 c-40 -39 -44 -56 -13 -56 26 0 88 46 88 65 0 7 6 16 13
18 6 3 -3 6 -20 6 -24 1 -42 -8 -68 -33z"/>
<path d="M5797 10964 c-23 -23 -37 -46 -37 -61 0 -23 2 -24 18 -12 48 36 72
65 72 86 0 31 -9 29 -53 -13z"/>
<path d="M10319 10377 c-69 -20 -138 -64 -203 -131 -72 -74 -106 -124 -144
-207 -64 -138 -92 -274 -92 -439 0 -175 40 -310 114 -383 59 -59 91 -72 181
-72 69 0 88 4 138 29 112 57 227 186 292 329 14 31 38 100 52 154 22 85 26
119 27 258 1 151 -1 165 -28 247 -45 140 -122 212 -238 223 -29 3 -73 -1 -99
-8z"/>
<path d="M5387 10555 c-32 -29 -45 -48 -41 -59 10 -26 33 -18 74 26 44 45 46
51 28 66 -10 7 -26 -2 -61 -33z"/>
<path d="M2723 10411 c-48 -43 -56 -71 -20 -71 29 0 87 59 87 88 0 32 -19 27
-67 -17z"/>
<path d="M2322 10012 c-45 -42 -55 -72 -22 -72 25 0 92 67 88 88 -5 28 -23 23
-66 -16z"/>
<path d="M7100 9732 c-28 -12 -90 -67 -90 -78 0 -6 7 -17 15 -24 13 -11 21 -8
50 20 19 19 35 40 35 47 0 7 5 13 10 13 6 0 10 7 10 15 0 16 -6 17 -30 7z"/>
<path d="M6643 9291 c-49 -43 -56 -71 -19 -71 16 0 35 14 60 44 20 24 36 49
36 55 0 22 -36 9 -77 -28z"/>
<path d="M3982 9149 c-37 -40 -45 -70 -18 -69 21 1 88 68 84 86 -6 31 -25 26
-66 -17z"/>
<path d="M3571 8746 c-22 -22 -32 -39 -28 -50 8 -21 23 -20 45 2 9 9 26 16 37
14 16 -2 17 -1 5 7 -12 9 -12 11 3 17 9 3 17 15 17 25 0 30 -41 22 -79 -15z"/>
<path d="M2892 13108 c-6 -8 -9 -17 -6 -21 3 -3 -4 -8 -15 -12 -23 -7 -51 -53
-44 -72 3 -7 -1 -13 -8 -13 -7 0 -10 -3 -6 -6 6 -6 63 31 89 59 9 11 21 16 27
13 5 -4 12 -2 16 4 3 5 1 10 -5 10 -7 0 -9 8 -5 22 6 16 4 20 -8 15 -9 -3 -17
-1 -19 5 -2 6 -9 4 -16 -4z"/>
<path d="M4242 7343 c-101 -505 -183 -922 -182 -926 0 -5 183 -7 408 -4 407 4
407 4 502 31 322 92 527 279 644 588 63 170 95 414 77 590 -29 273 -140 443
-356 548 -156 75 -207 83 -580 87 l-330 5 -183 -919z m792 514 c68 -31 130
-97 158 -167 20 -49 23 -72 22 -215 0 -131 -4 -176 -22 -250 -71 -283 -261
-444 -524 -445 -57 0 -68 3 -68 16 0 10 48 260 107 557 l106 540 84 -6 c58 -4
101 -14 137 -30z"/>
<path d="M6022 7342 c-101 -504 -183 -920 -182 -924 0 -5 261 -8 580 -8 l579
0 7 38 c3 20 19 102 35 181 16 79 29 149 29 155 0 8 -98 10 -337 8 -186 -1
-343 0 -349 2 -8 3 -4 38 13 118 13 62 31 146 40 186 l15 72 287 0 287 0 33
168 c18 92 35 179 38 195 l6 27 -287 0 c-157 0 -286 3 -286 7 0 10 51 276 56
295 5 16 34 17 342 17 l337 0 32 163 c17 90 34 175 37 191 l6 27 -568 0 -567
0 -183 -918z"/>
<path d="M7725 8238 c-6 -24 -365 -1821 -365 -1825 0 -2 256 -3 568 -3 l568 0
27 148 c15 81 32 166 36 190 7 35 6 42 -8 42 -9 0 -156 0 -328 0 -178 0 -314
3 -317 9 -3 5 37 222 89 482 118 584 195 970 195 975 0 2 -103 4 -230 4 l-230
0 -5 -22z"/>
<path d="M9190 8257 c0 -4 -359 -1801 -365 -1824 l-5 -23 232 0 233 0 183 918
c101 504 183 920 182 925 0 6 -460 11 -460 4z"/>
<path d="M9854 8208 c3 -29 20 -217 36 -418 17 -201 48 -581 70 -845 22 -264
40 -492 40 -507 l0 -28 283 0 282 0 62 123 c34 67 113 221 176 342 148 288
327 637 440 855 49 96 129 252 178 346 49 95 89 174 89 178 0 3 -114 6 -253 6
l-254 0 -15 -37 c-9 -21 -82 -191 -163 -378 -81 -187 -212 -492 -290 -678 -78
-186 -144 -340 -147 -342 -3 -3 -8 135 -11 307 -4 172 -14 468 -22 658 -8 190
-15 373 -15 408 l0 62 -246 0 -246 0 6 -52z"/>
<path d="M11710 8257 c0 -4 -359 -1801 -365 -1824 l-5 -23 579 0 c543 0 580 1
585 18 9 30 66 326 66 345 0 16 -23 17 -346 17 l-346 0 7 38 c3 20 20 105 38
187 l32 150 288 3 c158 1 287 3 287 5 0 1 16 81 35 177 19 96 35 182 35 191 0
13 -34 15 -282 18 -155 1 -283 3 -284 4 0 1 13 71 30 155 l31 153 335 5 c184
3 336 7 337 8 4 4 73 347 73 363 0 11 -101 13 -565 13 -311 0 -565 -1 -565 -3z"/>
<path d="M13055 7358 c-99 -496 -181 -913 -183 -925 l-3 -23 229 0 229 0 52
268 c29 147 57 288 62 315 l11 47 94 0 c52 0 94 -2 94 -4 0 -5 153 -460 186
-553 l26 -73 239 0 c131 0 239 2 239 5 0 6 -42 115 -174 454 -53 135 -94 246
-93 247 1 0 40 21 86 44 167 87 285 235 332 418 24 96 26 265 3 343 -44 151
-168 258 -363 312 -70 19 -105 21 -481 24 l-405 4 -180 -903z m839 527 c76
-20 109 -45 136 -101 43 -87 12 -216 -68 -290 -64 -59 -127 -77 -289 -82 -79
-2 -143 0 -143 4 0 5 21 116 46 247 l46 237 107 0 c63 0 131 -6 165 -15z"/>
<path d="M14704 8243 c8 -26 254 -1036 273 -1119 l15 -71 -61 -309 c-33 -171
-61 -316 -61 -322 0 -9 54 -12 227 -10 l227 3 65 321 c60 295 69 326 101 375
19 30 171 263 339 519 167 256 328 502 358 548 l53 82 -247 0 -248 0 -65 -118
c-35 -64 -101 -184 -147 -267 -46 -82 -116 -214 -156 -292 -39 -78 -73 -140
-74 -139 -4 4 -123 785 -123 808 0 4 -108 8 -241 8 -224 0 -240 -1 -235 -17z"/>
</g>
</svg>
