<svg width="16" height="14" viewBox="0 0 16 14" fill="none" xmlns="http://www.w3.org/2000/svg">
<path fill-rule="evenodd" clip-rule="evenodd" d="M4.65625 3.83211H4.32315V11.8321H11.6445V3.83211H11.3111H4.65625ZM12.9755 3.83211V11.8321H13.3093C13.6768 11.8321 13.9748 11.5336 13.9748 11.1654V4.49878C13.9748 4.13059 13.6768 3.83211 13.3093 3.83211H12.9755ZM2.66158 3.83211H2.99219V11.8321H2.66158C2.29404 11.8321 1.99609 11.5336 1.99609 11.1654V4.49878C1.99609 4.13059 2.29404 3.83211 2.66158 3.83211ZM11.3111 2.50008H13.3082C14.4108 2.50008 15.3047 3.39551 15.3047 4.50008V11.1667C15.3047 12.2713 14.4108 13.1667 13.3082 13.1667H2.66051C1.5579 13.1667 0.664062 12.2713 0.664062 11.1667V4.50008C0.664062 3.39551 1.5579 2.50008 2.66051 2.50008H4.65625V2.49878C4.65625 1.39421 5.55009 0.498779 6.65269 0.498779H9.31462C10.4172 0.498779 11.3111 1.39421 11.3111 2.49878V2.50008ZM9.97726 2.50008C9.97726 2.13189 9.67932 1.83341 9.31178 1.83341H6.64986C6.28232 1.83341 5.98438 2.13189 5.98438 2.50008H9.97726Z" fill="#777E90"/>
</svg>
