<svg width="15" height="15" viewBox="0 0 15 15" fill="none" xmlns="http://www.w3.org/2000/svg">
<path fill-rule="evenodd" clip-rule="evenodd" d="M7.21582 14.8516C11.0818 14.8516 14.2158 11.7176 14.2158 7.85156C14.2158 3.98557 11.0818 0.851562 7.21582 0.851562C3.34983 0.851562 0.21582 3.98557 0.21582 7.85156C0.21582 11.7176 3.34983 14.8516 7.21582 14.8516ZM6.71582 5.35156C6.71582 5.07542 6.93968 4.85156 7.21582 4.85156C7.49196 4.85156 7.71582 5.07542 7.71582 5.35156V7.35156H9.71582C9.99196 7.35156 10.2158 7.57542 10.2158 7.85156C10.2158 8.1277 9.99196 8.35156 9.71582 8.35156H7.71582V10.3516C7.71582 10.6277 7.49196 10.8516 7.21582 10.8516C6.93968 10.8516 6.71582 10.6277 6.71582 10.3516V8.35156H4.71582C4.43968 8.35156 4.21582 8.1277 4.21582 7.85156C4.21582 7.57542 4.43968 7.35156 4.71582 7.35156H6.71582V5.35156Z" fill="#145CE6"/>
</svg>
