<svg width="21" height="21" viewBox="0 0 21 21" fill="none" xmlns="http://www.w3.org/2000/svg">
<path d="M9.52951 4.69633C9.88011 4.64259 10.2343 4.61586 10.589 4.61637C13.7674 4.61637 16.7559 6.90524 18.4951 10.6134C18.2291 11.1777 17.9287 11.7251 17.5955 12.2526C17.4898 12.4163 17.4342 12.6074 17.4356 12.8023C17.4378 13.0205 17.5114 13.2319 17.645 13.4043C17.7786 13.5767 17.9649 13.7007 18.1756 13.7574C18.3862 13.814 18.6097 13.8001 18.8117 13.7179C19.0138 13.6357 19.1834 13.4897 19.2947 13.3021C19.7604 12.5704 20.1649 11.8015 20.5041 11.0032C20.5577 10.8785 20.5854 10.7442 20.5854 10.6084C20.5854 10.4727 20.5577 10.3383 20.5041 10.2136C18.4851 5.52592 14.687 2.61736 10.589 2.61736C10.1199 2.615 9.65154 2.65514 9.18968 2.7373C9.05843 2.75961 8.93285 2.80756 8.82012 2.87841C8.7074 2.94925 8.60973 3.04161 8.53269 3.1502C8.45566 3.25879 8.40077 3.38149 8.37115 3.51129C8.34154 3.6411 8.33778 3.77546 8.36009 3.90672C8.38241 4.03798 8.43036 4.16355 8.5012 4.27628C8.57205 4.38901 8.6644 4.48668 8.77299 4.56371C8.88158 4.64075 9.00428 4.69564 9.13409 4.72525C9.26389 4.75487 9.39826 4.75863 9.52951 4.73631V4.69633ZM2.30309 0.908204C2.2099 0.815012 2.09926 0.741087 1.9775 0.690652C1.85574 0.640217 1.72523 0.614258 1.59344 0.614258C1.46165 0.614258 1.33114 0.640217 1.20938 0.690652C1.08762 0.741087 0.976982 0.815012 0.88379 0.908204C0.695579 1.09641 0.589844 1.35168 0.589844 1.61785C0.589844 1.88402 0.695579 2.13929 0.88379 2.3275L3.98226 5.41598C2.56853 6.77683 1.44337 8.40848 0.673894 10.2136C0.618858 10.3397 0.59045 10.4758 0.59045 10.6134C0.59045 10.751 0.618858 10.8871 0.673894 11.0132C2.6929 15.7009 6.49102 18.6095 10.589 18.6095C12.3852 18.597 14.139 18.0622 15.6365 17.0702L18.8749 20.3186C18.9678 20.4123 19.0784 20.4866 19.2002 20.5374C19.322 20.5881 19.4526 20.6143 19.5845 20.6143C19.7165 20.6143 19.8471 20.5881 19.9689 20.5374C20.0907 20.4866 20.2013 20.4123 20.2942 20.3186C20.3879 20.2257 20.4622 20.1151 20.513 19.9933C20.5637 19.8715 20.5898 19.7409 20.5898 19.609C20.5898 19.477 20.5637 19.3464 20.513 19.2246C20.4622 19.1028 20.3879 18.9922 20.2942 18.8993L2.30309 0.908204ZM8.65994 10.0937L11.1087 12.5425C10.9398 12.5909 10.7647 12.6145 10.589 12.6124C10.0588 12.6124 9.55036 12.4018 9.17548 12.0269C8.80059 11.652 8.58998 11.1436 8.58998 10.6134C8.58793 10.4377 8.6115 10.2626 8.65994 10.0937ZM10.589 16.6104C7.41056 16.6104 4.42204 14.3216 2.6929 10.6134C3.33867 9.18786 4.25519 7.90132 5.39156 6.82528L7.16069 8.61439C6.74514 9.37282 6.58671 10.2455 6.70917 11.1016C6.83163 11.9577 7.22837 12.751 7.83988 13.3625C8.45138 13.974 9.24469 14.3708 10.1008 14.4932C10.9569 14.6157 11.8296 14.4573 12.588 14.0417L14.1772 15.6109C13.0888 16.2515 11.8518 16.5961 10.589 16.6104Z" fill="#84878B"/>
</svg>
